<?xml version="1.0" encoding="UTF-8"?><svg enable-background="new 0 0 100 100" version="1.1" viewBox="0 0 100 100" xml:space="preserve" xmlns="http://www.w3.org/2000/svg"> <path d="m31.6 3.5c-25.7 10.1-38.2 39.2-28.1 64.9s39.2 38.3 64.9 28.1l-3.1-7.9c-21.3 8.4-45.4-2-53.8-23.3s2-45.4 23.3-53.8l-3.2-8z" fill="#429aff"><animateTransform attributeName="transform" attributeType="XML" dur="2s" from="0 50 50" repeatCount="indefinite" to="360 50 50" type="rotate"/></path><path d="m42.3 39.6c5.7-4.3 13.9-3.1 18.1 2.7 4.3 5.7 3.1 13.9-2.7 18.1l4.1 5.5c8.8-6.5 10.6-19 4.1-27.7-6.5-8.8-19-10.6-27.7-4.1l4.1 5.5z" fill="#429aff"><animateTransform attributeName="transform" attributeType="XML" dur="1s" from="0 50 50" repeatCount="indefinite" to="-360 50 50" type="rotate"/></path><path d="M82,35.7C74.1,18,53.4,10.1,35.7,18S10.1,46.6,18,64.3l7.6-3.4c-6-13.5,0-29.3,13.5-35.3s29.3,0,35.3,13.5   L82,35.7z" fill="#429aff"><animateTransform attributeName="transform" attributeType="XML" dur="2s" from="0 50 50" repeatCount="indefinite" to="360 50 50" type="rotate"/></path></svg>
